<svg id="eBAFXqdNg2x1" xmlns="http://www.w3.org/2000/svg" xmlns:xlink="http://www.w3.org/1999/xlink" viewBox="0 0 300 225" shape-rendering="geometricPrecision" text-rendering="geometricPrecision" width="300" height="225"><path d="M120.082407,257.972052l29.917594-33.321388l32.192617,28.226266q13.131641-36.108745,12.415052-35.75045t56.25224,27.230383l-18.989609-40.128986l48.011467-19.347903-36.904335-21.49767l38.337515-39.054102-46.219993-3.582945l12.540308-41.920459-53.027588,22.930849-8.375889-38.352386-36.231779,31.54479-29.9176-29.341607-14.375135,36.149204L52.679684,78.824797l12.540308,41.920459-46.219993,3.582947l38.337515,39.0541-36.904335,21.49767l48.011467,19.347904-18.989609,40.128985l56.252235-27.230383q14.375135,41.203867,14.375135,40.845573" transform="matrix(1.141583-.000414 0.000414 1.141575-21.80937-71.309174)" stroke="#000"/><path d="M115.497621,257.42407c.849773,2.778398.920373,11.720583,3.369045,9.079935c0,0,30.921793-32.065735,30.921793-32.065735l33.152349,19.985899q22.083259-30.006791,21.36667-29.648496t41.972941,15.541731l-5.435449-34.289965l35.860346-10.903526-24.044122-30.248282l24.04412-33.5875-33.020936-12.414352l3.945731-34.497223-47.77602,13.296676-16.851585-26.637197-32.041345,18.749987-32.589516-22.406647-16.308504,29.65047-42.710527-8.490042-1.696849,32.077136-30.35264,10.882506l21.907506,33.296826-26.98827,33.882991l35.966513,7.882172-2.259679,34.497878l46.090166-13.902573q13.478262,30.26733,13.478262,30.26733Z" transform="matrix(.799091-.000289 0.000269 0.742024 29.641175-8.338757)" fill="#16ff00" stroke="#000"/><path d="M251.641696,6.087776c5.615631-1.079929,28.949313,43.118298,24.819331,49.8421s-16.369453-6.915127-18.463499,1.631203-4.410144,26.415025-10.628012,27.867182-2.105179-18.32968-4.27218-8.137485-5.894808,6.496724-7.527174,5.899677s1.088415-14.500065-2.034372-9.154672-2.705169,8.127541-7.1203,6.916863.697925-18.239322-3.051557-10.375294-7.631738,7.757451-9.764983,6.103114s3.945342-22.186064,5.521131-27.110862-11.509476-.180542-15.692988-4.625332c-5.420897-5.759455,25.104129-40.800364,48.214603-38.856494Z" transform="matrix(1.195577 0.31989-.319889 1.195574-118.496886-22.066491)" fill="#f8f8f8" stroke-width="0.6"/><path d="M259.575751,71.391102q-.610312,0-19.93684-15.461223l-30.515572,4.88249-1.220623-7.934049l24.209019-3.865306-14.2406-9.154672l4.679055-5.69624l19.123091,12.81654l26.243391-4.679054l1.017186,7.527174-19.93684,3.661869L265.068552,65.69486q-4.88249,5.69624-5.492801,5.696242Z" transform="matrix(1.195577 0.31989-.319889 1.195574-116.915521-29.312229)" fill="#16ff00" stroke-width="0.6"/></svg>
